<svg width="1396" height="266" viewBox="0 0 1396 266" fill="none" xmlns="http://www.w3.org/2000/svg">
<g clip-path="url(#clip0)">
<path d="M130.822 9.1973V164.846C130.822 170.637 127.406 174.383 121.599 174.383H111.694C105.887 174.383 102.471 170.637 102.471 164.846V159.738C92.5657 170.637 78.5613 177.448 61.4827 177.448C25.6178 177.789 0 149.52 0 113.418C0 77.3151 25.6178 49.0462 61.8243 49.0462C75.8287 49.0462 88.4668 53.8145 98.3724 60.9668V12.2626C98.3724 6.47259 101.447 4.08846 107.595 2.72611L121.258 0.341985C127.747 -1.02037 130.822 3.0667 130.822 9.1973ZM100.422 113.418C100.422 90.2575 85.0511 77.3151 66.6063 77.3151C46.1121 77.3151 32.4492 93.3228 32.4492 113.418C32.4492 133.512 45.7705 149.52 66.6063 149.52C85.0511 149.52 100.422 136.578 100.422 113.418Z" fill="white"/>
<path d="M384.609 138.96C381.535 135.895 378.119 134.533 372.995 139.301C363.432 147.816 354.209 149.859 346.353 149.859C325.176 149.859 311.513 134.192 311.513 113.757C311.513 92.9808 325.859 77.6542 346.353 77.6542C354.551 77.6542 363.432 79.3572 372.995 88.2125C378.119 92.6402 381.535 91.2778 384.609 88.5531L393.148 80.0384C397.93 75.2701 396.222 71.5236 393.148 68.4583C379.827 55.516 363.09 49.726 344.987 49.726C314.928 49.726 291.36 66.4148 282.479 91.6184C273.598 66.7554 249.688 49.726 219.289 49.726C180.691 49.726 151.999 77.3137 151.999 114.097C151.999 150.881 180.35 178.469 219.289 178.469C249.688 178.469 273.257 161.439 282.479 136.576C291.36 161.439 314.928 178.469 344.987 178.469C363.09 178.469 379.827 172.679 393.148 159.396C396.222 156.33 397.93 152.924 393.148 148.156L384.609 138.96ZM219.63 149.519C199.136 149.519 184.79 134.192 184.79 113.416C184.79 92.6402 199.478 77.3137 219.63 77.3137C239.783 77.3137 254.129 92.6402 254.129 113.416C254.129 134.192 239.783 149.519 219.63 149.519Z" fill="white"/>
<path d="M495.961 169.954C489.129 174.722 479.224 177.788 468.635 177.788C445.408 177.788 425.597 164.164 425.597 133.852V75.6109H413.301C407.494 75.6109 403.737 72.205 403.737 66.415V60.2844C403.737 54.4944 407.494 51.0885 413.301 51.0885H425.256V20.4355C425.256 14.6455 428.33 12.2613 434.478 10.899L447.799 8.17428C454.289 6.81193 457.705 11.2396 457.705 17.3702V51.0885H485.03C490.837 51.0885 494.594 54.1538 494.594 60.2844V66.415C494.594 72.205 490.837 75.6109 485.03 75.6109H457.705V130.786C457.705 144.41 464.195 149.519 473.759 149.519C477.857 149.519 481.615 147.816 485.03 145.772C490.837 142.366 493.228 144.75 495.619 148.838L500.06 159.055C502.792 164.505 499.035 167.57 495.961 169.954Z" fill="white"/>
<path d="M507.574 113.416C507.574 76.6325 535.925 49.0448 574.864 49.0448C613.461 49.0448 641.812 76.6325 641.812 113.416C641.812 150.2 613.461 177.787 574.864 177.787C535.925 177.787 507.574 150.2 507.574 113.416ZM609.021 113.416C609.021 92.6402 594.675 77.3137 574.522 77.3137C554.37 77.3137 539.682 92.6402 539.682 113.416C539.682 134.192 554.028 149.519 574.522 149.519C594.675 149.519 609.021 134.192 609.021 113.416Z" fill="white"/>
<path d="M747.698 60.9655L744.624 73.2267C742.916 79.3573 738.818 80.0385 734.719 79.0167C731.303 77.6544 727.204 76.9732 723.788 76.9732C707.735 76.9732 698.512 89.2344 698.512 106.945V165.186C698.512 170.976 695.438 174.722 689.29 174.722H674.944C669.137 174.722 665.721 170.976 665.721 165.186V60.2843C665.721 54.4943 669.137 51.0884 674.944 51.0884H684.166C689.973 51.0884 693.389 54.4943 693.389 60.2843V68.1179C701.245 56.5379 712.175 49.3855 726.18 49.3855C732.328 49.3855 736.768 50.0667 741.55 51.429C745.991 52.4508 749.406 54.4943 747.698 60.9655Z" fill="white"/>
<path d="M892.524 113.416C892.524 149.178 866.907 177.447 830.7 177.447C809.523 177.447 792.444 167.91 781.855 153.265V169.273C781.855 172.338 780.148 174.722 777.073 174.722H773.658C770.584 174.722 768.876 172.679 768.876 169.273V6.47126C768.876 3.74655 770.242 2.04361 773.658 1.02184L776.732 0.340661C780.831 -1.0217 782.539 1.36243 782.539 5.10891V72.8861C793.469 58.5814 810.547 49.3855 831.383 49.3855C867.248 49.3855 892.524 77.6544 892.524 113.416ZM878.862 113.416C878.862 84.8067 859.392 61.6467 829.675 61.6467C802.691 61.6467 780.489 80.7197 780.831 113.416C781.172 146.113 802.35 165.186 829.675 165.186C859.392 165.186 878.862 142.026 878.862 113.416Z" fill="white"/>
<path d="M985.773 57.9002L985.432 59.9437C984.066 63.6902 981.675 63.6902 978.6 63.009C975.185 61.9873 972.452 61.6467 969.378 61.6467C950.592 61.6467 937.27 79.3573 937.27 104.22V169.613C937.27 172.679 935.221 175.063 932.488 175.063H928.731C925.657 175.063 923.949 173.019 923.949 169.613V57.219C923.949 54.1537 925.998 52.1102 928.731 52.1102H931.805C934.879 52.1102 936.587 54.1537 936.587 57.219V72.8861C943.077 58.5814 955.032 50.0667 970.744 50.0667C975.526 50.0667 978.942 50.4072 983.041 51.7696C985.432 51.7696 987.14 53.8131 985.773 57.9002Z" fill="white"/>
<path d="M1098.49 97.4084V168.932C1098.49 172.679 1096.78 174.382 1093.71 174.382H1090.64C1087.56 174.382 1085.85 172.338 1085.85 168.932V155.99C1075.95 169.273 1059.21 177.106 1041.45 177.106C1013.1 177.106 993.971 161.439 993.971 137.939C993.971 114.097 1014.47 97.749 1044.87 97.749C1060.92 97.749 1074.58 102.177 1085.51 107.967V94.3431C1085.51 74.589 1070.82 60.9654 1048.28 60.9654C1034.96 60.9654 1020.96 65.7337 1008.32 76.2919C1005.24 78.676 1003.19 77.6543 1001.14 75.6107L1000.12 74.2484C997.728 71.1831 998.753 68.1178 1001.49 66.0742C1017.54 53.813 1031.89 49.0448 1048.62 49.0448C1080.39 49.3854 1098.49 67.7772 1098.49 97.4084ZM1085.51 130.446V121.25C1076.63 116.822 1061.26 110.351 1045.21 110.351C1022.66 110.351 1007.63 121.59 1007.63 138.62C1007.63 154.627 1021.64 165.186 1042.13 165.186C1063.65 165.186 1085.51 152.243 1085.51 130.446Z" fill="white"/>
<path d="M1242.98 99.1114V168.932C1242.98 171.997 1241.27 174.382 1238.19 174.382H1234.44C1231.36 174.382 1229.66 172.338 1229.66 168.932V100.474C1229.66 76.6325 1214.63 61.306 1191.4 61.306C1167.49 61.306 1151.09 77.3137 1151.09 100.814V168.932C1151.09 171.997 1149.04 174.382 1146.31 174.382H1142.55C1139.48 174.382 1137.77 172.338 1137.77 168.932V56.5378C1137.77 53.4725 1139.82 51.4289 1142.55 51.4289H1145.63C1148.7 51.4289 1150.41 53.4725 1150.41 56.5378V70.8425C1158.95 57.5595 1174.32 49.0448 1193.45 49.0448C1223.51 49.3854 1242.98 69.8207 1242.98 99.1114Z" fill="white"/>
<path d="M1396 5.10887V169.273C1396 172.338 1394.29 174.722 1391.22 174.722H1387.8C1384.73 174.722 1383.02 172.679 1383.02 169.273V153.265C1372.43 167.91 1355.69 177.788 1334.18 177.788C1297.97 177.788 1272.35 149.519 1272.35 113.757C1272.35 77.6543 1297.97 49.726 1334.18 49.726C1355.01 49.726 1372.09 58.9219 1383.02 73.2267V6.47122C1383.02 3.74651 1384.39 2.04356 1387.8 1.0218L1390.88 0.340619C1394.63 -0.681148 1396 1.36239 1396 5.10887ZM1384.04 113.416C1384.04 80.7196 1362.18 61.6467 1335.2 61.6467C1305.14 61.6467 1286.01 84.8067 1286.01 113.416C1286.01 142.026 1305.48 165.186 1335.2 165.186C1362.53 165.186 1384.04 146.113 1384.04 113.416Z" fill="white"/>
<path d="M192.646 217.296C192.646 211.846 196.062 208.781 201.527 212.528C225.095 228.876 255.837 239.434 286.578 239.434C317.319 239.434 348.061 228.876 371.971 212.528C377.436 208.44 380.852 211.506 380.852 217.296V228.195C380.852 233.644 378.119 236.369 372.654 239.775C347.719 256.123 316.978 266 286.92 266C256.861 266 226.462 255.782 201.527 239.775C196.062 236.369 192.988 233.985 192.988 228.195V217.296H192.646Z" fill="white"/>
</g>
<defs>
<clipPath id="clip0">
<rect width="1396" height="266" fill="white"/>
</clipPath>
</defs>
</svg>
