<svg width="29" height="29" viewBox="0 0 29 29" fill="none" xmlns="http://www.w3.org/2000/svg">
<path fill-rule="evenodd" clip-rule="evenodd" d="M15.2031 28.573H1.60438C1.18872 28.5728 0.790145 28.4076 0.496285 28.1136C0.202426 27.8197 0.0373536 27.421 0.0373536 27.0054V1.74585C0.0372759 1.53996 0.0777677 1.33608 0.156521 1.14585C0.235274 0.955621 0.350738 0.782783 0.496321 0.6372C0.641905 0.491617 0.814752 0.376143 1.00498 0.29739C1.19521 0.218637 1.39909 0.178145 1.60498 0.178223H26.8651C27.0709 0.178223 27.2747 0.218774 27.4649 0.297561C27.655 0.376349 27.8278 0.491832 27.9733 0.637407C28.1189 0.782983 28.2343 0.955804 28.313 1.14599C28.3917 1.33618 28.4322 1.54001 28.4321 1.74585V27.0054C28.4321 27.421 28.267 27.8197 27.9732 28.1136C27.6793 28.4076 27.2807 28.5728 26.8651 28.573H19.6291V17.5771H23.3205L23.873 13.2919H19.6291V10.5559C19.6291 9.31483 19.974 8.46949 21.7528 8.46949L24.022 8.46831V4.63561C23.6298 4.58355 22.2829 4.46701 20.7152 4.46701C17.4439 4.46701 15.2037 6.46411 15.2037 10.1312V13.2919H11.5035V17.5771H15.2037V28.573H15.2031Z" fill="#D9F4E8"/>
</svg>
