<svg width="37" height="38" viewBox="0 0 37 38" fill="none" xmlns="http://www.w3.org/2000/svg">
<path fill-rule="evenodd" clip-rule="evenodd" d="M19.637 37.2619H2.14199C1.60724 37.2617 1.09446 37.0491 0.716402 36.6709C0.338346 36.2927 0.125977 35.7798 0.125977 35.2451V2.74822C0.125877 2.48335 0.17797 2.22105 0.279288 1.97632C0.380605 1.73158 0.529152 1.50922 0.716448 1.32193C0.903744 1.13463 1.12611 0.986074 1.37085 0.884756C1.61558 0.783439 1.87788 0.731345 2.14276 0.731445H34.6404C34.9052 0.731445 35.1674 0.783615 35.412 0.884977C35.6567 0.986339 35.879 1.13491 36.0662 1.3222C36.2534 1.50948 36.4019 1.73182 36.5031 1.9765C36.6044 2.22118 36.6565 2.48341 36.6564 2.74822V35.2451C36.6564 35.7798 36.444 36.2927 36.066 36.6709C35.6879 37.0491 35.1751 37.2617 34.6404 37.2619H25.3312V23.1155H30.0802L30.791 17.6024H25.3312V14.0826C25.3312 12.4859 25.7749 11.3983 28.0634 11.3983L30.9828 11.3968V6.46596C30.4782 6.39899 28.7453 6.24906 26.7285 6.24906C22.5199 6.24906 19.6378 8.81836 19.6378 13.5361V17.6024H14.8774V23.1155H19.6378V37.2619H19.637Z" fill="black"/>
</svg>
