<svg width="40" height="40" viewBox="0 0 40 40" fill="none" xmlns="http://www.w3.org/2000/svg">
<path d="M36.3147 0.475708H3.04101C1.44767 0.475708 0.15625 1.72765 0.15625 3.27284V36.7192C0.15625 38.2643 1.4481 39.5176 3.04101 39.5176H36.3147C37.908 39.5176 39.1977 38.2639 39.1977 36.7192V3.27284C39.1977 1.72808 37.908 0.475708 36.3147 0.475708ZM11.9924 33.1564H6.09365V15.5294H11.9924V33.1564ZM9.04348 13.1214H9.00401C7.02589 13.1214 5.74358 11.7684 5.74358 10.0748C5.74358 8.34698 7.06363 7.03084 9.08079 7.03084C11.0984 7.03084 12.3395 8.34655 12.3785 10.0748C12.3785 11.7688 11.0988 13.1214 9.04348 13.1214ZM33.2564 33.1564H27.3593V23.7256C27.3593 21.3553 26.5047 19.7385 24.3722 19.7385C22.7407 19.7385 21.7724 20.8295 21.3473 21.8824C21.1894 22.2589 21.1508 22.7847 21.1508 23.3104V33.1559H15.2546C15.2546 33.1559 15.3318 17.1822 15.2546 15.529H21.1512V18.0281C21.9342 16.8273 23.3328 15.1142 26.4648 15.1142C30.346 15.1142 33.2564 17.632 33.2564 23.0489V33.1564ZM21.1131 18.084C21.1235 18.0675 21.1374 18.0476 21.1512 18.0285V18.084H21.1131Z" fill="black"/>
</svg>
