<svg width="31" height="31" viewBox="0 0 31 31" fill="none" xmlns="http://www.w3.org/2000/svg">
<path d="M28.1056 0.202637H2.2423C1.00381 0.202637 0 1.17576 0 2.37682V28.3743C0 29.5754 1.00414 30.5495 2.2423 30.5495H28.1056C29.3441 30.5495 30.3466 29.5751 30.3466 28.3743V2.37682C30.3466 1.1761 29.3441 0.202637 28.1056 0.202637ZM9.20017 25.605H4.61509V11.9037H9.20017V25.605ZM6.90796 10.032H6.87728C5.3397 10.032 4.34298 8.98031 4.34298 7.66393C4.34298 6.32091 5.36904 5.29788 6.93696 5.29788C8.50522 5.29788 9.46992 6.32057 9.50026 7.66393C9.50026 8.98065 8.50556 10.032 6.90796 10.032ZM25.7284 25.605H21.1447V18.2746C21.1447 16.4322 20.4804 15.1755 18.8228 15.1755C17.5547 15.1755 16.8021 16.0235 16.4716 16.8418C16.3489 17.1345 16.3189 17.5432 16.3189 17.9519V25.6047H11.7358C11.7358 25.6047 11.7958 13.1884 11.7358 11.9034H16.3192V13.8459C16.9278 12.9126 18.0149 11.581 20.4494 11.581C23.4662 11.581 25.7284 13.5381 25.7284 17.7485V25.605ZM16.2895 13.8894C16.2976 13.8766 16.3084 13.8611 16.3192 13.8463V13.8894H16.2895Z" fill="#D9F4E8"/>
</svg>
