<svg width="381" height="72" viewBox="0 0 381 72" fill="none" xmlns="http://www.w3.org/2000/svg">
<g clip-path="url(#clip0)">
<path d="M36.4156 2.48915V44.6198C36.4156 46.187 35.4859 47.2011 33.9052 47.2011H31.2089C29.6283 47.2011 28.6985 46.187 28.6985 44.6198V43.2369C26.0021 46.187 22.1901 48.0308 17.5412 48.0308C7.77851 48.1229 0.805176 40.4712 0.805176 30.6991C0.805176 20.927 7.77851 13.2753 17.6341 13.2753C21.4462 13.2753 24.8864 14.566 27.5828 16.502V3.31885C27.5828 1.75163 28.4196 1.10631 30.0932 0.737548L33.8123 0.0922212C35.5788 -0.276537 36.4156 0.829737 36.4156 2.48915ZM28.1406 30.6991C28.1406 24.4302 23.9566 20.927 18.9358 20.927C13.3572 20.927 9.63806 25.26 9.63806 30.6991C9.63806 36.1383 13.2642 40.4712 18.9358 40.4712C23.9566 40.4712 28.1406 36.968 28.1406 30.6991Z" fill="#333333"/>
<path d="M105.498 37.6133C104.661 36.7836 103.732 36.4148 102.337 37.7055C99.7335 40.0102 97.2231 40.5634 95.0846 40.5634C89.32 40.5634 85.6009 36.3227 85.6009 30.7913C85.6009 25.1677 89.506 21.0192 95.0846 21.0192C97.3161 21.0192 99.7335 21.4801 102.337 23.8771C103.732 25.0755 104.661 24.7068 105.498 23.9693L107.823 21.6645C109.124 20.3739 108.659 19.3598 107.823 18.5301C104.196 15.0269 99.6405 13.4597 94.7127 13.4597C86.5307 13.4597 80.1152 17.9769 77.6978 24.799C75.2804 18.0691 68.7719 13.4597 60.4969 13.4597C49.9904 13.4597 42.1803 20.927 42.1803 30.8835C42.1803 40.8399 49.8974 48.3073 60.4969 48.3073C68.7719 48.3073 75.1874 43.6978 77.6978 36.968C80.1152 43.6978 86.5307 48.3073 94.7127 48.3073C99.6405 48.3073 104.196 46.7401 107.823 43.1447C108.659 42.315 109.124 41.3931 107.823 40.1024L105.498 37.6133ZM60.5899 40.4712C55.0112 40.4712 51.1062 36.3226 51.1062 30.6991C51.1062 25.0755 55.1042 20.927 60.5899 20.927C66.0756 20.927 69.9806 25.0755 69.9806 30.6991C69.9806 36.3226 66.0756 40.4712 60.5899 40.4712Z" fill="#333333"/>
<path d="M135.809 46.0026C133.949 47.2932 131.253 48.1229 128.371 48.1229C122.048 48.1229 116.655 44.4353 116.655 36.2305V20.4661H113.308C111.728 20.4661 110.705 19.5442 110.705 17.9769V16.3175C110.705 14.7503 111.728 13.8284 113.308 13.8284H116.562V5.53136C116.562 3.96414 117.399 3.31881 119.073 2.95005L122.699 2.21254C124.466 1.84378 125.395 3.04224 125.395 4.70165V13.8284H132.834C134.414 13.8284 135.437 14.6581 135.437 16.3175V17.9769C135.437 19.5442 134.414 20.4661 132.834 20.4661H125.395V35.4008C125.395 39.0883 127.162 40.4712 129.765 40.4712C130.881 40.4712 131.904 40.0102 132.834 39.4571C134.414 38.5352 135.065 39.1805 135.716 40.2868L136.925 43.0525C137.668 44.5275 136.646 45.3572 135.809 46.0026Z" fill="#333333"/>
<path d="M138.97 30.6991C138.97 20.7426 146.687 13.2753 157.287 13.2753C167.793 13.2753 175.51 20.7426 175.51 30.6991C175.51 40.6556 167.793 48.1229 157.287 48.1229C146.687 48.1229 138.97 40.6556 138.97 30.6991ZM166.584 30.6991C166.584 25.0755 162.679 20.927 157.194 20.927C151.708 20.927 147.71 25.0755 147.71 30.6991C147.71 36.3227 151.615 40.4712 157.194 40.4712C162.679 40.4712 166.584 36.3227 166.584 30.6991Z" fill="#333333"/>
<path d="M204.333 16.5019L203.497 19.8207C203.032 21.4801 201.916 21.6645 200.8 21.3879C199.871 21.0192 198.755 20.8348 197.825 20.8348C193.455 20.8348 190.945 24.1536 190.945 28.9475V44.7119C190.945 46.2791 190.108 47.2932 188.434 47.2932H184.529C182.949 47.2932 182.019 46.2791 182.019 44.7119V16.3175C182.019 14.7503 182.949 13.8284 184.529 13.8284H187.04C188.62 13.8284 189.55 14.7503 189.55 16.3175V18.4379C191.688 15.3034 194.664 13.3675 198.476 13.3675C200.149 13.3675 201.358 13.5518 202.66 13.9206C203.869 14.1972 204.798 14.7503 204.333 16.5019Z" fill="#333333"/>
<path d="M243.756 30.6991C243.756 40.379 236.783 48.0307 226.927 48.0307C221.162 48.0307 216.513 45.4494 213.631 41.4853V45.8182C213.631 46.6479 213.166 47.2932 212.329 47.2932H211.4C210.563 47.2932 210.098 46.7401 210.098 45.8182V1.75159C210.098 1.01408 210.47 0.553129 211.4 0.27656L212.236 0.0921813C213.352 -0.276577 213.817 0.36875 213.817 1.38283V19.7285C216.792 15.8566 221.441 13.3675 227.113 13.3675C236.876 13.3675 243.756 21.0192 243.756 30.6991ZM240.037 30.6991C240.037 22.9552 234.737 16.6863 226.648 16.6863C219.303 16.6863 213.259 21.8489 213.352 30.6991C213.445 39.5493 219.21 44.7119 226.648 44.7119C234.737 44.7119 240.037 38.443 240.037 30.6991Z" fill="#333333"/>
<path d="M269.139 15.6722L269.046 16.2253C268.674 17.2394 268.023 17.2394 267.186 17.0551C266.257 16.7785 265.513 16.6863 264.676 16.6863C259.562 16.6863 255.936 21.4801 255.936 28.21V45.9104C255.936 46.7401 255.378 47.3854 254.634 47.3854H253.612C252.775 47.3854 252.31 46.8323 252.31 45.9104V15.4878C252.31 14.6581 252.868 14.105 253.612 14.105H254.448C255.285 14.105 255.75 14.6581 255.75 15.4878V19.7285C257.517 15.8566 260.771 13.5518 265.048 13.5518C266.35 13.5518 267.279 13.644 268.395 14.0128C269.046 14.0128 269.511 14.5659 269.139 15.6722Z" fill="#333333"/>
<path d="M299.822 26.3662V45.726C299.822 46.7401 299.357 47.201 298.52 47.201H297.683C296.846 47.201 296.381 46.6479 296.381 45.726V42.2228C293.685 45.8182 289.129 47.9385 284.294 47.9385C276.577 47.9385 271.37 43.6978 271.37 37.3367C271.37 30.8835 276.949 26.4584 285.224 26.4584C289.594 26.4584 293.313 27.6568 296.288 29.2241V25.5365C296.288 20.1895 292.29 16.5019 286.154 16.5019C282.528 16.5019 278.716 17.7926 275.275 20.6504C274.439 21.2958 273.881 21.0192 273.323 20.4661L273.044 20.0973C272.393 19.2676 272.672 18.4379 273.416 17.8848C277.786 14.5659 281.691 13.2753 286.247 13.2753C294.894 13.3675 299.822 18.3457 299.822 26.3662ZM296.288 35.3086V32.8195C293.871 31.621 289.687 29.8694 285.317 29.8694C279.18 29.8694 275.089 32.9116 275.089 37.5211C275.089 41.854 278.902 44.7119 284.48 44.7119C290.338 44.7119 296.288 41.2087 296.288 35.3086Z" fill="#333333"/>
<path d="M339.151 26.8271V45.726C339.151 46.5557 338.686 47.201 337.849 47.201H336.827C335.99 47.201 335.525 46.6479 335.525 45.726V27.1959C335.525 20.7426 331.434 16.5941 325.112 16.5941C318.603 16.5941 314.14 20.927 314.14 27.2881V45.726C314.14 46.5557 313.582 47.201 312.838 47.201H311.816C310.979 47.201 310.514 46.6479 310.514 45.726V15.3035C310.514 14.4737 311.072 13.9206 311.816 13.9206H312.653C313.489 13.9206 313.954 14.4737 313.954 15.3035V19.1754C316.279 15.58 320.463 13.2753 325.669 13.2753C333.851 13.3675 339.151 18.8988 339.151 26.8271Z" fill="#333333"/>
<path d="M380.805 1.38283V45.8182C380.805 46.6479 380.34 47.2932 379.503 47.2932H378.574C377.737 47.2932 377.272 46.7401 377.272 45.8182V41.4853C374.39 45.4494 369.834 48.1229 363.976 48.1229C354.121 48.1229 347.147 40.4712 347.147 30.7913C347.147 21.0192 354.121 13.4597 363.976 13.4597C369.648 13.4597 374.297 15.9488 377.272 19.8207V1.75159C377.272 1.01407 377.644 0.553124 378.574 0.276556L379.411 0.0921769C380.433 -0.184392 380.805 0.368745 380.805 1.38283ZM377.551 30.6991C377.551 21.8489 371.6 16.6863 364.255 16.6863C356.073 16.6863 350.866 22.9552 350.866 30.6991C350.866 38.443 356.166 44.7119 364.255 44.7119C371.693 44.7119 377.551 39.5493 377.551 30.6991Z" fill="#333333"/>
<path d="M53.2446 58.8169C53.2446 57.3419 54.1744 56.5122 55.662 57.5263C62.0775 61.9514 70.4455 64.8092 78.8135 64.8092C87.1815 64.8092 95.5495 61.9514 102.058 57.5263C103.546 56.42 104.475 57.2497 104.475 58.8169V61.767C104.475 63.242 103.732 63.9795 102.244 64.9014C95.4565 69.3265 87.0885 72 78.9065 72C70.7244 72 62.4494 69.2343 55.662 64.9014C54.1744 63.9795 53.3376 63.3342 53.3376 61.767V58.8169H53.2446Z" fill="#333333"/>
</g>
<defs>
<clipPath id="clip0">
<rect width="380" height="72" fill="white" transform="translate(0.805176)"/>
</clipPath>
</defs>
</svg>
