<svg width="380" height="72" viewBox="0 0 380 72" fill="none" xmlns="http://www.w3.org/2000/svg">
<g clip-path="url(#clip0)">
<path d="M35.6105 2.48898V44.6196C35.6105 46.1868 34.6807 47.2009 33.1001 47.2009H30.4037C28.8231 47.2009 27.8933 46.1868 27.8933 44.6196V43.2367C25.197 46.1868 21.3849 48.0306 16.736 48.0306C6.97333 48.1228 0 40.4711 0 30.699C0 20.9269 6.97333 13.2752 16.829 13.2752C20.6411 13.2752 24.0812 14.5658 26.7776 16.5018V3.31869C26.7776 1.75146 27.6144 1.10614 29.288 0.73738L33.0071 0.0920534C34.7737 -0.276705 35.6105 0.82957 35.6105 2.48898ZM27.3355 30.699C27.3355 24.4301 23.1515 20.9269 18.1307 20.9269C12.552 20.9269 8.83288 25.2598 8.83288 30.699C8.83288 36.1381 12.459 40.4711 18.1307 40.4711C23.1515 40.4711 27.3355 36.9678 27.3355 30.699Z" fill="#DBF5E8"/>
<path d="M104.693 37.6131C103.856 36.7834 102.926 36.4147 101.532 37.7053C98.9283 40.01 96.4179 40.5632 94.2795 40.5632C88.5148 40.5632 84.7957 36.3225 84.7957 30.7911C84.7957 25.1675 88.7008 21.019 94.2795 21.019C96.5109 21.019 98.9283 21.48 101.532 23.8769C102.926 25.0753 103.856 24.7066 104.693 23.9691L107.017 21.6643C108.319 20.3737 107.854 19.3596 107.017 18.5299C103.391 15.0267 98.8354 13.4595 93.9075 13.4595C85.7255 13.4595 79.31 17.9768 76.8926 24.7988C74.4752 18.0689 67.9668 13.4595 59.6917 13.4595C49.1852 13.4595 41.3751 20.9268 41.3751 30.8833C41.3751 40.8398 49.0923 48.3071 59.6917 48.3071C67.9668 48.3071 74.3822 43.6976 76.8926 36.9678C79.31 43.6976 85.7255 48.3071 93.9075 48.3071C98.8354 48.3071 103.391 46.7399 107.017 43.1445C107.854 42.3148 108.319 41.3929 107.017 40.1022L104.693 37.6131ZM59.7847 40.471C54.2061 40.471 50.301 36.3225 50.301 30.6989C50.301 25.0753 54.299 20.9268 59.7847 20.9268C65.2704 20.9268 69.1755 25.0753 69.1755 30.6989C69.1755 36.3225 65.2704 40.471 59.7847 40.471Z" fill="#DBF5E8"/>
<path d="M135.004 46.0025C133.144 47.2932 130.448 48.1229 127.565 48.1229C121.243 48.1229 115.85 44.4353 115.85 36.2304V20.466H112.503C110.922 20.466 109.9 19.5441 109.9 17.9769V16.3175C109.9 14.7503 110.922 13.8284 112.503 13.8284H115.757V5.53133C115.757 3.96411 116.594 3.31878 118.268 2.95002L121.894 2.21251C123.66 1.84375 124.59 3.04221 124.59 4.70162V13.8284H132.028C133.609 13.8284 134.632 14.6581 134.632 16.3175V17.9769C134.632 19.5441 133.609 20.466 132.028 20.466H124.59V35.4007C124.59 39.0883 126.357 40.4711 128.96 40.4711C130.076 40.4711 131.099 40.0102 132.028 39.4571C133.609 38.5352 134.26 39.1805 134.911 40.2868L136.119 43.0525C136.863 44.5275 135.84 45.3572 135.004 46.0025Z" fill="#DBF5E8"/>
<path d="M138.165 30.6992C138.165 20.7427 145.882 13.2754 156.482 13.2754C166.988 13.2754 174.705 20.7427 174.705 30.6992C174.705 40.6557 166.988 48.123 156.482 48.123C145.882 48.123 138.165 40.6557 138.165 30.6992ZM165.779 30.6992C165.779 25.0756 161.874 20.9271 156.389 20.9271C150.903 20.9271 146.905 25.0756 146.905 30.6992C146.905 36.3228 150.81 40.4713 156.389 40.4713C161.874 40.4713 165.779 36.3228 165.779 30.6992Z" fill="#DBF5E8"/>
<path d="M203.528 16.5016L202.691 19.8205C202.227 21.4799 201.111 21.6642 199.995 21.3877C199.065 21.0189 197.95 20.8345 197.02 20.8345C192.65 20.8345 190.139 24.1534 190.139 28.9472V44.7116C190.139 46.2788 189.303 47.2929 187.629 47.2929H183.724C182.143 47.2929 181.214 46.2788 181.214 44.7116V16.3173C181.214 14.75 182.143 13.8281 183.724 13.8281H186.234C187.815 13.8281 188.745 14.75 188.745 16.3173V18.4376C190.883 15.3032 193.859 13.3672 197.671 13.3672C199.344 13.3672 200.553 13.5516 201.855 13.9203C203.063 14.1969 203.993 14.75 203.528 16.5016Z" fill="#DBF5E8"/>
<path d="M242.951 30.699C242.951 40.3789 235.977 48.0307 226.122 48.0307C220.357 48.0307 215.708 45.4494 212.826 41.4852V45.8181C212.826 46.6478 212.361 47.2932 211.524 47.2932H210.595C209.758 47.2932 209.293 46.74 209.293 45.8181V1.75155C209.293 1.01403 209.665 0.553083 210.595 0.276515L211.431 0.0921355C212.547 -0.276622 213.012 0.368704 213.012 1.38279V19.7285C215.987 15.8565 220.636 13.3674 226.308 13.3674C236.07 13.3674 242.951 21.0191 242.951 30.699ZM239.232 30.699C239.232 22.9551 233.932 16.6862 225.843 16.6862C218.498 16.6862 212.454 21.8489 212.547 30.699C212.64 39.5492 218.405 44.7118 225.843 44.7118C233.932 44.7118 239.232 38.443 239.232 30.699Z" fill="#DBF5E8"/>
<path d="M268.334 15.6721L268.241 16.2253C267.869 17.2393 267.218 17.2393 266.381 17.055C265.451 16.7784 264.708 16.6862 263.871 16.6862C258.757 16.6862 255.131 21.4801 255.131 28.2099V45.9103C255.131 46.74 254.573 47.3853 253.829 47.3853H252.806C251.97 47.3853 251.505 46.8322 251.505 45.9103V15.4877C251.505 14.658 252.063 14.1049 252.806 14.1049H253.643C254.48 14.1049 254.945 14.658 254.945 15.4877V19.7285C256.712 15.8565 259.966 13.5518 264.243 13.5518C265.544 13.5518 266.474 13.6439 267.59 14.0127C268.241 14.0127 268.706 14.5658 268.334 15.6721Z" fill="#DBF5E8"/>
<path d="M299.016 26.3663V45.7261C299.016 46.7402 298.552 47.2011 297.715 47.2011H296.878C296.041 47.2011 295.576 46.648 295.576 45.7261V42.2229C292.88 45.8183 288.324 47.9386 283.489 47.9386C275.772 47.9386 270.565 43.6979 270.565 37.3368C270.565 30.8836 276.144 26.4585 284.419 26.4585C288.789 26.4585 292.508 27.657 295.483 29.2242V25.5366C295.483 20.1896 291.485 16.502 285.349 16.502C281.723 16.502 277.91 17.7927 274.47 20.6505C273.633 21.2959 273.076 21.0193 272.518 20.4662L272.239 20.0974C271.588 19.2677 271.867 18.438 272.611 17.8849C276.981 14.566 280.886 13.2754 285.442 13.2754C294.089 13.3676 299.016 18.3458 299.016 26.3663ZM295.483 35.3087V32.8196C293.066 31.6211 288.882 29.8695 284.512 29.8695C278.375 29.8695 274.284 32.9118 274.284 37.5212C274.284 41.8541 278.096 44.712 283.675 44.712C289.533 44.712 295.483 41.2088 295.483 35.3087Z" fill="#DBF5E8"/>
<path d="M338.346 26.8272V45.7261C338.346 46.5558 337.881 47.2011 337.044 47.2011H336.022C335.185 47.2011 334.72 46.648 334.72 45.7261V27.196C334.72 20.7427 330.629 16.5942 324.306 16.5942C317.798 16.5942 313.335 20.9271 313.335 27.2882V45.7261C313.335 46.5558 312.777 47.2011 312.033 47.2011H311.011C310.174 47.2011 309.709 46.648 309.709 45.7261V15.3036C309.709 14.4739 310.267 13.9207 311.011 13.9207H311.847C312.684 13.9207 313.149 14.4739 313.149 15.3036V19.1755C315.473 15.5801 319.657 13.2754 324.864 13.2754C333.046 13.3676 338.346 18.899 338.346 26.8272Z" fill="#DBF5E8"/>
<path d="M380 1.3826V45.8179C380 46.6476 379.535 47.293 378.698 47.293H377.769C376.932 47.293 376.467 46.7398 376.467 45.8179V41.485C373.585 45.4492 369.029 48.1227 363.171 48.1227C353.315 48.1227 346.342 40.471 346.342 30.7911C346.342 21.019 353.315 13.4594 363.171 13.4594C368.843 13.4594 373.492 15.9485 376.467 19.8205V1.75136C376.467 1.01384 376.839 0.552895 377.769 0.276327L378.605 0.091948C379.628 -0.184621 380 0.368516 380 1.3826ZM376.746 30.6989C376.746 21.8487 370.795 16.6861 363.45 16.6861C355.268 16.6861 350.061 22.9549 350.061 30.6989C350.061 38.4428 355.361 44.7117 363.45 44.7117C370.888 44.7117 376.746 39.5491 376.746 30.6989Z" fill="#DBF5E8"/>
<path d="M52.4395 58.8168C52.4395 57.3418 53.3692 56.5121 54.8569 57.5261C61.2723 61.9512 69.6403 64.8091 78.0083 64.8091C86.3763 64.8091 94.7443 61.9512 101.253 57.5261C102.74 56.4199 103.67 57.2496 103.67 58.8168V61.7669C103.67 63.2419 102.926 63.9794 101.439 64.9013C94.6513 69.3264 86.2833 71.9999 78.1013 71.9999C69.9193 71.9999 61.6442 69.2342 54.8569 64.9013C53.3692 63.9794 52.5324 63.3341 52.5324 61.7669V58.8168H52.4395Z" fill="#DBF5E8"/>
</g>
<defs>
<clipPath id="clip0">
<rect width="380" height="72" fill="white"/>
</clipPath>
</defs>
</svg>
