<svg width="1440" height="245" viewBox="0 0 1440 245" fill="none" xmlns="http://www.w3.org/2000/svg">
<path opacity="0.7" d="M187.939 59.6607C156.569 59.6607 132.6 75.5222 120.968 99.1381C111.099 74.8172 89.2456 59.6607 58.5801 59.6607C30.7345 59.6607 8.88098 71.9974 -3.45569 91.3836V70.235C-3.45569 65.6528 -5.92302 62.833 -10.5052 62.833H-14.7349C-18.9646 62.833 -21.7845 65.6528 -21.7845 70.235V232.374C-21.7845 236.956 -18.9646 240.129 -14.7349 240.129H-9.44778C-5.21807 240.129 -2.39826 236.956 -2.39826 232.374V134.033C-2.39826 100.195 21.5701 76.9321 55.4078 76.9321C88.5406 76.9321 107.927 99.1381 107.927 133.328V232.374C107.927 236.956 110.394 240.129 114.976 240.129H119.911C124.493 240.129 126.961 236.956 126.961 232.374V134.033C126.961 100.195 150.929 76.9321 184.767 76.9321C217.547 76.9321 236.933 99.1381 236.933 133.328V232.374C236.933 236.956 239.753 240.129 243.983 240.129H249.27C253.852 240.129 256.319 236.956 256.319 232.374V131.566C256.319 88.9162 230.589 59.6607 187.939 59.6607ZM318.809 158.002H462.62C468.612 158.002 472.137 154.124 472.137 148.485C472.137 126.279 464.382 104.778 449.931 88.5638C435.479 70.5875 413.626 59.6607 386.485 59.6607C335.376 59.6607 298.718 99.4905 298.718 152.362C298.718 210.168 342.425 244.358 390.362 244.358C414.331 244.358 443.586 234.841 463.677 213.693C466.145 210.873 467.907 206.643 464.03 202.766L461.915 201.004C458.742 197.831 454.865 197.126 450.283 201.004C432.307 218.98 409.396 226.734 389.657 226.734C353.352 226.734 321.277 201.356 318.809 158.002ZM386.485 77.2845C409.043 77.2845 426.667 86.4489 437.594 101.958C445.701 112.18 450.636 125.221 452.398 140.378H318.809C322.687 102.663 349.122 77.2845 386.485 77.2845ZM595.9 59.6607C568.054 59.6607 546.201 71.9974 533.864 91.0311V70.235C533.864 65.6528 531.397 62.833 526.814 62.833H522.585C518.355 62.833 515.535 65.6528 515.535 70.235V232.374C515.535 236.956 518.355 240.129 522.585 240.129H527.872C532.102 240.129 534.921 236.956 534.921 232.374V134.033C534.921 100.195 558.89 76.9321 593.08 76.9321C626.565 76.9321 648.066 99.1381 648.066 133.328V232.374C648.066 236.956 650.886 240.129 655.116 240.129H660.403C664.985 240.129 667.452 236.956 667.452 232.374V131.566C667.452 88.9162 639.607 59.6607 595.9 59.6607ZM809.856 224.267L808.798 222.857C806.331 218.627 803.159 217.218 797.871 220.39C791.174 224.267 785.535 227.087 777.075 227.087C757.337 227.087 745.705 215.103 745.705 190.782V79.0469H794.699C798.929 79.0469 802.101 76.9321 802.101 72.3499V69.5301C802.101 65.3003 798.929 62.833 794.699 62.833H745.705V7.14177C745.705 1.85461 743.238 -0.965184 737.598 0.444724L733.368 1.50214C728.434 2.91205 726.319 5.73186 726.319 9.25662V62.833H703.408C698.826 62.833 696.006 65.3003 696.006 69.5301V72.3499C696.006 76.9321 698.826 79.0469 703.408 79.0469H726.319V191.134C726.319 226.029 745.352 244.358 775.665 244.358C788.002 244.358 797.166 241.186 806.331 235.194C809.151 233.079 812.675 229.202 809.856 224.267ZM916.012 244.358C969.588 244.358 1009.42 204.176 1009.42 152.009C1009.42 99.843 969.588 59.6607 916.012 59.6607C862.435 59.6607 822.605 99.843 822.605 152.009C822.605 204.176 862.435 244.358 916.012 244.358ZM916.012 226.734C873.009 226.734 842.344 194.659 842.344 152.009C842.344 109.36 873.362 77.2845 916.012 77.2845C958.661 77.2845 989.679 109.36 989.679 152.009C989.679 194.659 958.661 226.734 916.012 226.734ZM1138.83 62.1281C1132.84 60.3657 1128.26 59.6607 1121.21 59.6607C1098.65 59.6607 1081.73 72.3499 1072.22 92.7935V70.235C1072.22 65.6528 1069.75 62.833 1065.17 62.833H1060.94C1056.71 62.833 1053.89 65.6528 1053.89 70.235V232.374C1053.89 236.956 1056.71 240.129 1060.94 240.129H1066.22C1070.45 240.129 1073.27 236.956 1073.27 232.374V138.263C1073.27 102.663 1092.66 76.9321 1119.45 76.9321C1123.68 76.9321 1127.56 77.637 1132.49 79.0469C1136.72 80.4568 1140.6 80.1043 1142.36 74.8172L1143.06 71.9974C1145.18 66.0053 1142.36 63.1855 1138.83 62.1281ZM1171.09 158.002H1314.9C1320.89 158.002 1324.41 154.124 1324.41 148.485C1324.41 126.279 1316.66 104.778 1302.21 88.5638C1287.76 70.5875 1265.9 59.6607 1238.76 59.6607C1187.65 59.6607 1150.99 99.4905 1150.99 152.362C1150.99 210.168 1194.7 244.358 1242.64 244.358C1266.61 244.358 1295.86 234.841 1315.95 213.693C1318.42 210.873 1320.18 206.643 1316.31 202.766L1314.19 201.004C1311.02 197.831 1307.14 197.126 1302.56 201.004C1284.58 218.98 1261.67 226.734 1241.93 226.734C1205.63 226.734 1173.55 201.356 1171.09 158.002ZM1238.76 77.2845C1261.32 77.2845 1278.94 86.4489 1289.87 101.958C1297.98 112.18 1302.91 125.221 1304.67 140.378H1171.09C1174.96 102.663 1201.4 77.2845 1238.76 77.2845ZM1415.05 244.358C1451.36 244.358 1475.33 224.972 1475.33 195.717C1475.33 159.411 1445.01 149.542 1414.35 136.853C1394.96 129.099 1380.16 120.992 1380.16 104.425C1380.16 88.2113 1394.61 76.9321 1415.76 76.9321C1432.32 76.9321 1443.95 82.2192 1456.29 96.6707C1460.87 100.9 1464.75 99.4905 1467.92 96.6707L1469.33 95.2608C1473.56 91.0311 1471.8 87.1539 1468.98 83.9816C1454.88 66.7102 1436.2 59.6607 1416.46 59.6607C1383.68 59.6607 1360.42 77.9895 1360.42 106.188C1360.42 132.623 1383.33 143.903 1405.89 153.067C1430.91 163.641 1455.59 171.396 1455.59 196.069C1455.59 214.75 1438.67 227.087 1413.64 227.087C1393.2 227.087 1376.98 218.627 1365.71 202.766C1361.48 198.184 1358.3 198.889 1354.43 202.061L1352.66 203.119C1348.08 206.643 1349.49 210.521 1351.96 214.398C1366.06 234.489 1390.73 244.358 1415.05 244.358Z" fill="white"/>
</svg>
