<svg width="40" height="40" viewBox="0 0 40 40" fill="none" xmlns="http://www.w3.org/2000/svg">
<path d="M32.5289 0.725159H7.79475C5.82678 0.725159 3.93941 1.4919 2.54785 2.8567C1.15628 4.22151 0.374512 6.07258 0.374512 8.0027L0.374512 32.2612C0.374512 34.1913 1.15628 36.0424 2.54785 37.4072C3.93941 38.772 5.82678 39.5387 7.79475 39.5387H32.5289C34.4969 39.5387 36.3842 38.772 37.7758 37.4072C39.1674 36.0424 39.9491 34.1913 39.9491 32.2612V8.0027C39.9491 6.07258 39.1674 4.22151 37.7758 2.8567C36.3842 1.4919 34.4969 0.725159 32.5289 0.725159V0.725159ZM32.5289 31.3854C32.5286 31.6176 32.4344 31.8402 32.267 32.0043C32.0996 32.1685 31.8727 32.2609 31.636 32.2612H8.68765C8.45094 32.2609 8.22402 32.1685 8.05664 32.0043C7.88926 31.8402 7.79508 31.6176 7.79475 31.3854V8.87843C7.79475 8.39569 8.19545 8.0027 8.68765 8.0027H31.636C32.1282 8.0027 32.5289 8.39569 32.5289 8.87843V31.3854ZM25.1086 10.4285H30.0555V15.2802H25.1086V10.4285ZM15.215 20.1319C15.215 21.4187 15.7362 22.6527 16.6639 23.5626C17.5916 24.4725 18.8498 24.9836 20.1618 24.9836C21.4738 24.9836 22.732 24.4725 23.6598 23.5626C24.5875 22.6527 25.1086 21.4187 25.1086 20.1319C25.1086 18.8452 24.5875 17.6111 23.6598 16.7013C22.732 15.7914 21.4738 15.2802 20.1618 15.2802C18.8498 15.2802 17.5916 15.7914 16.6639 16.7013C15.7362 17.6111 15.215 18.8452 15.215 20.1319ZM27.5202 20.1319C27.5202 24.1128 24.2182 27.3488 20.1618 27.3488C16.1054 27.3488 12.8034 24.1128 12.8034 20.1319C12.8034 19.6152 12.8652 19.4066 12.9691 18.919H10.2682V29.8353H30.0555V18.919H27.3545C27.4609 19.4066 27.5202 19.6152 27.5202 20.1319Z" fill="black"/>
</svg>
