<svg width="32" height="31" viewBox="0 0 32 31" fill="none" xmlns="http://www.w3.org/2000/svg">
<path d="M25.8047 0.395996H6.57909C5.0494 0.395996 3.58237 0.991975 2.50072 2.05282C1.41907 3.11367 0.811401 4.5525 0.811401 6.05276L0.811401 24.9087C0.811401 26.4089 1.41907 27.8477 2.50072 28.9086C3.58237 29.9694 5.0494 30.5654 6.57909 30.5654H25.8047C27.3344 30.5654 28.8014 29.9694 29.8831 28.9086C30.9647 27.8477 31.5724 26.4089 31.5724 24.9087V6.05276C31.5724 4.5525 30.9647 3.11367 29.8831 2.05282C28.8014 0.991975 27.3344 0.395996 25.8047 0.395996V0.395996ZM25.8047 24.228C25.8044 24.4084 25.7312 24.5814 25.6011 24.709C25.471 24.8366 25.2946 24.9084 25.1107 24.9087H7.27313C7.08914 24.9084 6.91275 24.8366 6.78265 24.709C6.65254 24.5814 6.57934 24.4084 6.57909 24.228V6.73346C6.57909 6.35823 6.89054 6.05276 7.27313 6.05276H25.1107C25.4932 6.05276 25.8047 6.35823 25.8047 6.73346V24.228ZM20.037 7.93835H23.8821V11.7095H20.037V7.93835ZM12.3468 15.4807C12.3468 16.4809 12.7519 17.4401 13.473 18.1473C14.1941 18.8546 15.1721 19.2519 16.1919 19.2519C17.2117 19.2519 18.1897 18.8546 18.9108 18.1473C19.6319 17.4401 20.037 16.4809 20.037 15.4807C20.037 14.4805 19.6319 13.5213 18.9108 12.8141C18.1897 12.1068 17.2117 11.7095 16.1919 11.7095C15.1721 11.7095 14.1941 12.1068 13.473 12.8141C12.7519 13.5213 12.3468 14.4805 12.3468 15.4807ZM21.9115 15.4807C21.9115 18.575 19.3449 21.0903 16.1919 21.0903C13.0389 21.0903 10.4723 18.575 10.4723 15.4807C10.4723 15.0791 10.5203 14.9169 10.6011 14.5379H8.50165V23.0231H23.8821V14.5379H21.7827C21.8654 14.9169 21.9115 15.0791 21.9115 15.4807Z" fill="#D9F4E8"/>
</svg>
